PathFileType	4	(X/Y/Z)	D:\TRACE\spot_10-12-23\spot_arm_body_motion_3_10-v60.trc
DataRate	CameraRate	NumFrames	NumMarkers	Units	OrigDataRate	OrigDataStartFrame	OrigNumFrames
100.00	100.00	      35	9	mm	100.00	4376	      7000
Frame#	Time	front left toe			Front right toe			aft left toe			aft right toe			Arm			FL body			FR body			AL Body			AR Body			
		X1	Y1	Z1	X2	Y2	Z2	X3	Y3	Z3	X4	Y4	Z4	X5	Y5	Z5	X6	Y6	Z6	X7	Y7	Z7	X8	Y8	Z8	X9	Y9	Z9	

4376	43.750	-211.85847	62.74074	-390.21597	190.11372	38.80059	-372.09805	-188.40471	8.45334	160.23085	180.10402	4.34128	238.32545	60.39608	870.56396	-688.19861	-88.89323	612.64307	-431.12888	63.53979	619.65143	-425.40210	-123.05769	535.17432	449.39673	27.00517	535.12744	456.68552	
4377	43.760	-212.97319	52.36338	-390.73560	190.06210	38.67929	-372.33792	-188.25195	8.48986	160.29967	180.26805	4.40931	238.23839	60.74826	870.54218	-687.98242	-90.93126	612.31293	-431.49908	61.14582	619.36353	-425.99313	-124.68504	535.24506	448.84665	25.81739	535.22443	456.12601	
4378	43.770	-214.11490	42.58059	-391.20862	190.10703	38.75097	-372.38251	-188.13379	8.49298	160.31462	180.39903	4.47241	238.22672	61.33407	870.53735	-687.74738	-93.27821	612.22394	-432.03793	58.65168	619.30621	-426.73990	-126.05630	535.43616	448.36960	24.33787	535.44580	455.72864	
4379	43.780	-213.80954	36.85758	-394.32217	190.05780	40.07654	-370.80072	-188.07362	8.53009	160.35014	180.45198	4.56741	238.17874	62.05793	870.42206	-687.72461	-95.51424	611.78192	-432.65625	56.50314	618.72803	-427.49841	-128.23732	535.58490	447.78232	22.27186	535.52454	454.84558	
4380	43.790	-214.45377	35.76430	-392.35007	190.21297	40.25791	-371.03360	-188.09398	8.46017	160.20383	180.54436	4.54272	238.10840	62.76109	870.26288	-687.75470	-97.86413	612.41187	-433.30899	54.36131	618.97870	-428.07324	-130.10114	535.70093	447.03030	20.07180	535.35559	454.22647	
4381	43.800	-216.00807	36.22512	-389.74097	188.90071	41.20732	-372.04727	-189.04800	6.97678	160.19807	179.54405	5.81239	236.90361	62.95539	870.37079	-687.67108	-100.18358	613.17706	-433.82776	51.99807	619.59375	-428.83786	-132.18851	535.82269	446.46344	18.09768	535.13818	453.55310	
4382	43.810	-215.90381	35.05745	-391.92508	188.62090	41.51109	-371.82089	-190.07530	5.95836	160.55986	178.79083	7.20832	237.57014	62.90459	870.77881	-687.44556	-102.41550	614.81396	-434.47003	50.04247	619.99158	-429.50443	-134.08635	536.31494	445.71115	16.50885	534.80652	452.53470	
4383	43.820	-216.58577	36.13547	-391.04242	188.59766	41.13409	-371.81415	-189.87993	6.24341	159.61301	178.88014	6.99795	237.83546	62.89680	871.13190	-687.32013	-104.00603	616.16675	-435.19849	47.73760	620.96295	-430.78357	-136.49965	537.01978	444.99500	13.69297	535.09528	451.88062	
4384	43.830	-214.71043	34.65815	-391.89471	188.75745	41.14009	-372.05069	-189.38686	6.52739	159.80621	179.08412	6.55396	237.61859	63.19833	871.30487	-687.25897	-105.48634	617.28613	-435.95886	46.79125	620.87561	-430.47046	-138.76183	538.02350	444.25946	11.38342	535.47412	451.37213	
4385	43.840	-215.54054	35.53091	-391.90384	188.69411	41.05823	-372.05179	-189.98163	6.07993	159.73933	178.31081	6.87134	237.24249	63.35614	871.35175	-687.38245	-106.38623	618.35535	-436.79404	45.94616	622.00726	-431.46100	-140.57097	539.13745	443.40805	9.84369	535.85809	451.00381	
4386	43.850	-214.68869	35.00273	-392.22449	188.79802	41.15707	-372.01517	-190.14127	5.94766	159.48352	178.15982	7.25788	237.62175	63.55085	871.53925	-687.88123	-107.47800	619.53772	-437.70700	44.98949	623.10095	-431.99197	-142.61125	539.99500	442.50061	8.06689	536.74420	450.02539	
4387	43.860	-215.16554	35.51625	-392.32062	188.98157	41.21091	-372.13666	-189.83875	6.07540	159.19571	178.37888	7.30216	237.39168	63.43615	872.19733	-687.97626	-108.17674	620.58112	-438.41464	43.94935	624.20837	-432.95868	-144.26735	540.88025	441.54062	6.11877	537.76892	449.22903	
4388	43.870	-215.26949	35.41792	-392.43265	188.97279	41.21011	-372.25604	-190.03264	6.08205	159.14935	178.36723	7.40171	237.47481	62.93598	872.66095	-688.34344	-108.68245	621.60834	-439.37830	43.34391	625.22070	-433.48404	-145.46739	541.84344	440.85489	4.64288	538.81293	448.49445	
4389	43.880	-214.66966	35.02483	-392.65939	188.98373	41.20236	-372.32651	-189.78255	5.89652	158.97563	178.35512	7.34781	237.29338	62.14368	872.93561	-689.09576	-109.22263	622.30505	-440.07916	42.94846	626.23499	-434.31308	-146.82556	542.85785	439.85965	3.47025	540.10809	447.66879	
4390	43.890	-214.61192	34.91880	-392.68817	189.01369	41.18217	-372.45502	-189.68092	5.75769	158.84096	178.44690	7.49315	237.27985	61.39986	873.56879	-689.30511	-109.97308	623.07758	-440.83911	42.13241	627.18665	-435.10544	-147.78465	544.03430	438.95721	2.59736	541.26318	446.86414	
4391	43.900	-214.78217	34.74804	-392.76642	188.87671	41.19333	-372.60843	-189.94978	5.80669	158.87808	178.33269	7.48341	237.17523	60.41838	873.95172	-689.66760	-110.55003	623.81976	-441.79755	41.76480	627.95770	-435.89133	-148.38193	545.05389	438.13184	1.83258	542.61890	446.20709	
4392	43.910	-214.81349	34.58927	-392.90759	188.88191	41.26419	-372.64127	-189.90559	6.08073	158.70145	178.43958	7.60172	237.17052	59.69062	874.23743	-690.30615	-111.28579	624.78864	-442.68643	40.89729	629.26666	-437.24347	-148.70654	546.20270	437.38815	1.51759	544.05463	445.32669	
4393	43.920	-214.87373	34.54152	-392.91153	188.85326	41.31778	-372.83197	-189.54573	6.07485	158.61356	178.63486	7.65248	237.09575	59.34111	874.32990	-690.60254	-111.95244	625.50110	-443.44318	40.13982	629.77795	-437.74646	-148.98047	547.27563	436.51978	1.26631	545.22473	444.20023	
4394	43.930	-215.06015	34.34877	-393.00482	188.76656	41.36715	-373.01111	-189.53726	6.17290	158.51785	178.89507	7.44823	236.81613	59.00048	874.44537	-690.57947	-112.65416	626.00323	-444.41440	39.45743	630.75934	-438.69662	-148.88663	548.67194	435.89810	1.60470	546.53461	443.55350	
4395	43.940	-215.20634	34.06746	-393.02231	188.59656	41.60583	-372.41769	-189.43341	6.19743	158.45280	178.79198	7.54562	236.85732	59.11154	874.40082	-690.86029	-113.38628	626.68341	-445.55530	38.80229	631.43127	-439.72638	-148.83514	549.66333	434.78012	1.58430	547.59839	442.32288	
4396	43.950	-215.27280	33.83652	-393.02576	188.51080	41.52084	-372.52637	-189.33630	6.25410	158.41389	178.86578	7.43450	236.52271	59.55617	874.29492	-690.97443	-113.96075	627.27869	-446.32492	38.21384	632.20795	-441.09000	-148.55548	550.83228	434.01294	1.81298	548.99426	441.55319	
4397	43.960	-215.39978	33.68033	-393.09082	188.53050	41.27763	-373.46786	-189.57454	6.56485	158.25757	178.82980	7.36351	236.34064	59.89701	874.18170	-690.96942	-114.72013	627.94409	-447.34882	37.67888	633.01776	-442.29742	-148.03554	552.24463	433.20273	2.33725	550.19556	440.49918	
4398	43.970	-215.46124	33.63805	-393.20450	188.41820	41.28666	-373.61819	-189.51169	6.65084	158.19656	178.93239	7.37502	236.21451	60.39360	874.00281	-691.09540	-115.03163	628.49158	-448.16653	37.19756	633.19806	-443.22452	-147.98378	553.42688	432.20575	2.39813	551.54535	439.42825	
4399	43.980	-215.49776	33.60476	-393.26251	188.37337	41.20164	-373.73465	-189.51784	6.66659	158.09209	178.91045	7.37189	236.11295	60.91928	873.85413	-691.15900	-115.20658	629.14386	-449.19614	37.11959	633.87311	-444.08804	-147.81079	554.69470	431.53397	2.57899	552.84180	438.54013	
4400	43.990	-216.01070	33.88750	-393.46777	188.26688	41.12858	-373.89575	-189.62596	6.67227	157.96480	178.79544	7.28288	235.92426	61.76319	873.55963	-691.39124	-114.99057	629.63000	-450.22601	37.24755	634.39056	-445.49005	-147.66003	556.05756	430.54266	2.84163	554.00177	437.43140	
4401	44.000	-216.08507	33.85385	-393.74817	188.08900	40.92513	-373.97873	-189.75569	6.75184	157.81891	178.67377	7.29753	235.94955	62.53300	873.29303	-691.62231	-114.58859	630.06525	-451.04276	37.64111	634.80688	-446.30341	-147.82884	557.36438	429.64548	2.54602	555.22626	436.68814	
4402	44.010	-216.16241	33.88350	-393.88568	187.92398	40.75722	-374.02271	-189.87482	6.84291	157.58858	178.51768	7.26737	235.83032	62.82973	873.09235	-691.73389	-114.10965	630.75140	-452.08533	37.96633	635.21912	-447.01962	-147.94885	558.65686	428.44525	2.70187	556.50201	436.25986	
4403	44.020	-216.32784	34.04206	-394.09958	187.66951	40.54319	-374.12320	-190.06680	6.90796	157.38164	178.45872	7.05075	235.59242	62.89281	873.04163	-691.83228	-113.57963	631.41357	-453.22571	38.85467	635.69824	-447.72473	-148.06334	560.02722	427.61606	2.42360	557.65094	435.06537	
4404	44.030	-216.35832	34.12869	-394.23627	187.70998	40.28593	-374.01852	-190.23564	6.97478	157.17998	178.08838	7.12241	235.62480	62.77266	872.84088	-692.10052	-112.80379	631.87561	-454.03476	39.55323	636.02972	-448.82239	-148.25075	561.39655	426.88602	2.32940	558.87323	434.48386	
4405	44.040	-216.30374	34.15867	-394.38187	187.71783	40.13944	-374.05734	-190.29190	6.88435	156.98358	177.87517	7.08030	235.60066	62.50541	872.67194	-692.37225	-111.75283	632.36255	-455.00534	40.58118	636.40295	-449.70297	-148.15811	562.58606	425.86584	2.11174	560.16864	433.61414	
4406	44.050	-216.37439	34.17110	-394.61249	187.66977	39.96676	-374.12057	-190.37405	6.85786	156.84512	177.68213	7.07046	235.49428	62.46994	872.50708	-692.65820	-110.74387	632.92963	-455.79199	41.40697	636.74286	-450.09888	-148.39911	563.83386	425.16739	2.31296	561.29382	433.09549	
4407	44.060	-216.49945	34.19805	-394.78232	187.63312	39.86628	-374.13013	-190.82143	7.10982	156.61734	177.49945	7.02015	235.46400	62.31011	872.35876	-692.80457	-109.97443	633.40094	-456.75485	42.01509	637.21741	-450.90091	-148.35385	565.02051	424.21930	2.05582	562.34052	432.08200	
4408	44.070	-216.64331	34.27808	-394.95432	187.60442	39.82535	-374.20245	-191.32126	7.40954	156.51675	177.32419	7.04036	235.35811	61.98410	872.21912	-692.94055	-109.13515	633.92316	-457.44965	42.85018	637.87372	-451.66821	-148.29440	566.21606	423.41379	2.58898	563.35883	431.65195	
4409	44.080	-216.85745	34.34604	-395.04065	187.34744	39.68216	-374.35562	-191.94525	7.84442	156.33917	177.19986	7.08671	235.32593	61.42863	871.96991	-693.10638	-108.59776	634.72034	-458.23819	43.70177	638.41107	-452.55453	-148.02931	567.17212	422.80759	2.78625	564.47754	430.84537	
4410	44.090	-217.04021	34.56532	-395.27698	187.43861	40.13712	-374.19855	-191.39287	7.37097	156.26401	176.99078	7.30906	235.01971	60.95564	871.79596	-693.60089	-107.91260	635.46075	-459.03165	44.30637	638.72485	-452.93735	-146.83708	568.39777	421.79047	3.02677	565.34674	430.03787	
